<?xml version="1.0" standalone="no"?>
<!DOCTYPE svg PUBLIC "-//W3C//DTD SVG 20010904//EN"
 "http://www.w3.org/TR/2001/REC-SVG-20010904/DTD/svg10.dtd">
<svg version="1.0" xmlns="http://www.w3.org/2000/svg"
 width="200.000000pt" height="200.000000pt" viewBox="0 0 200.000000 200.000000"
 preserveAspectRatio="xMidYMid meet">

<g transform="translate(0.000000,200.000000) scale(0.100000,-0.100000)"
fill="#000000" stroke="none">
<path d="M964 1968 c-44 -54 -57 -95 -52 -173 l5 -71 -66 14 c-80 17 -168 11
-211 -14 -44 -26 -70 -81 -70 -149 0 -96 33 -134 135 -152 108 -20 163 26 139
114 -6 21 -8 22 -35 8 -35 -19 -44 -19 -63 1 -19 18 -21 75 -4 92 17 17 83 15
117 -3 51 -26 81 -71 81 -122 0 -42 -5 -50 -65 -115 l-66 -69 72 -81 c69 -79
71 -82 65 -122 -9 -51 -21 -63 -72 -72 -40 -6 -43 -4 -122 65 l-81 72 -69 -66
c-65 -60 -73 -65 -115 -65 -34 0 -53 6 -77 26 -54 46 -76 116 -50 165 19 35
110 17 110 -22 0 -6 -7 -23 -15 -38 -14 -27 -13 -29 8 -35 88 -24 134 31 114
139 -18 102 -56 135 -152 135 -68 0 -123 -26 -149 -70 -25 -43 -31 -131 -14
-211 l14 -66 -72 5 c-81 5 -139 -15 -185 -64 l-24 -26 40 -34 c53 -45 95 -57
174 -52 l67 5 -14 -66 c-17 -80 -11 -168 14 -211 26 -44 81 -70 149 -70 96 0
134 33 152 135 16 87 -13 145 -73 145 -57 0 -66 -7 -49 -40 8 -16 15 -33 15
-39 0 -39 -91 -57 -110 -22 -26 49 -4 119 50 165 24 20 43 26 77 26 42 0 50
-5 115 -65 l69 -66 81 72 c79 69 82 71 122 65 52 -9 63 -21 72 -73 6 -39 4
-44 -42 -95 -27 -29 -59 -65 -72 -79 l-24 -27 66 -70 c61 -65 66 -73 66 -115
0 -34 -6 -53 -26 -77 -46 -54 -116 -76 -165 -50 -35 19 -17 110 22 110 6 0 23
-7 39 -15 25 -13 29 -13 34 1 14 36 6 81 -19 104 -51 48 -206 16 -239 -49 -22
-42 -21 -133 3 -179 11 -20 33 -45 51 -56 43 -25 131 -31 211 -14 l66 14 -5
-67 c-5 -80 7 -121 53 -174 l35 -40 35 40 c46 53 58 94 53 174 l-5 67 66 -14
c80 -17 168 -11 211 14 85 50 97 233 17 276 -35 19 -122 36 -153 31 -59 -11
-90 -69 -68 -127 5 -14 9 -14 34 -1 16 8 33 15 39 15 39 0 57 -91 22 -110 -49
-26 -119 -4 -165 50 -20 24 -26 43 -26 77 0 42 5 50 65 115 l66 69 -72 81
c-69 79 -71 82 -65 122 9 51 21 63 72 72 40 6 43 4 121 -65 l81 -71 70 65 c65
60 73 65 115 65 34 0 53 -6 77 -26 54 -46 76 -116 50 -165 -19 -35 -110 -17
-110 22 0 6 7 23 15 39 17 33 8 40 -49 40 -60 0 -89 -58 -73 -145 18 -102 56
-135 152 -135 68 0 123 26 149 70 25 43 31 131 14 211 l-14 66 67 -5 c79 -5
121 7 174 52 l40 34 -24 26 c-46 49 -104 69 -186 64 l-73 -5 11 36 c5 20 11
74 11 121 1 100 -17 141 -76 171 -46 24 -137 25 -179 3 -63 -32 -95 -175 -52
-232 23 -31 41 -36 89 -27 34 6 34 6 19 35 -8 16 -15 33 -15 39 0 39 91 57
110 22 26 -49 4 -119 -50 -165 -24 -20 -43 -26 -77 -26 -42 0 -50 5 -115 66
l-70 66 -27 -24 c-14 -13 -50 -45 -79 -72 -51 -46 -56 -48 -95 -42 -52 9 -64
20 -73 72 -6 40 -4 43 65 122 l72 81 -66 69 c-60 65 -65 73 -65 115 0 34 6 53
26 77 46 54 116 76 165 50 35 -19 17 -110 -22 -110 -6 0 -23 7 -39 15 -33 17
-40 8 -40 -49 0 -64 63 -92 161 -71 87 19 119 59 119 150 0 68 -26 123 -70
149 -43 25 -131 31 -211 14 l-67 -14 5 57 c3 31 3 73 -1 92 -6 34 -69 127 -86
127 -4 0 -21 -15 -36 -32z"/>
</g>
</svg>
